<mxfile host="app.diagrams.net" modified="2022-05-01T11:40:40.790Z" agent="5.0 (Windows NT 10.0; Win64; x64) AppleWebKit/537.36 (KHTML, like Gecko) Chrome/100.0.4896.127 Safari/537.36" etag="PLErFt17hHtEJP9VSle9" version="17.5.0" type="github">
  <diagram id="7u-bzlaxNCfuiFKdH_kw" name="Page-1">
    <mxGraphModel dx="782" dy="412" grid="1" gridSize="10" guides="1" tooltips="1" connect="1" arrows="1" fold="1" page="1" pageScale="1" pageWidth="827" pageHeight="1169" math="0" shadow="0">
      <root>
        <mxCell id="0" />
        <mxCell id="1" parent="0" />
        <mxCell id="kukDhXoUH24sscGrnGUv-6" style="edgeStyle=orthogonalEdgeStyle;rounded=0;orthogonalLoop=1;jettySize=auto;html=1;exitX=0;exitY=1;exitDx=0;exitDy=0;exitPerimeter=0;" edge="1" parent="1" source="kukDhXoUH24sscGrnGUv-1" target="kukDhXoUH24sscGrnGUv-2">
          <mxGeometry relative="1" as="geometry" />
        </mxCell>
        <mxCell id="kukDhXoUH24sscGrnGUv-7" style="edgeStyle=orthogonalEdgeStyle;rounded=0;orthogonalLoop=1;jettySize=auto;html=1;exitX=1;exitY=1;exitDx=0;exitDy=0;exitPerimeter=0;" edge="1" parent="1" source="kukDhXoUH24sscGrnGUv-1" target="kukDhXoUH24sscGrnGUv-3">
          <mxGeometry relative="1" as="geometry" />
        </mxCell>
        <mxCell id="kukDhXoUH24sscGrnGUv-1" value="用户" style="verticalLabelPosition=bottom;html=1;verticalAlign=top;align=center;strokeColor=none;fillColor=#00BEF2;shape=mxgraph.azure.user;" vertex="1" parent="1">
          <mxGeometry x="390" y="280" width="47.5" height="50" as="geometry" />
        </mxCell>
        <mxCell id="kukDhXoUH24sscGrnGUv-8" style="edgeStyle=orthogonalEdgeStyle;rounded=0;orthogonalLoop=1;jettySize=auto;html=1;exitX=1;exitY=0.5;exitDx=0;exitDy=0;" edge="1" parent="1" source="kukDhXoUH24sscGrnGUv-2" target="kukDhXoUH24sscGrnGUv-3">
          <mxGeometry relative="1" as="geometry" />
        </mxCell>
        <mxCell id="kukDhXoUH24sscGrnGUv-9" style="edgeStyle=orthogonalEdgeStyle;rounded=0;orthogonalLoop=1;jettySize=auto;html=1;exitX=0.5;exitY=1;exitDx=0;exitDy=0;entryX=0;entryY=0.5;entryDx=0;entryDy=0;" edge="1" parent="1" source="kukDhXoUH24sscGrnGUv-2" target="kukDhXoUH24sscGrnGUv-4">
          <mxGeometry relative="1" as="geometry" />
        </mxCell>
        <mxCell id="kukDhXoUH24sscGrnGUv-2" value="Controller&lt;br&gt;控制器" style="rounded=1;whiteSpace=wrap;html=1;" vertex="1" parent="1">
          <mxGeometry x="174" y="430" width="120" height="60" as="geometry" />
        </mxCell>
        <mxCell id="kukDhXoUH24sscGrnGUv-10" style="edgeStyle=orthogonalEdgeStyle;rounded=0;orthogonalLoop=1;jettySize=auto;html=1;exitX=0.5;exitY=1;exitDx=0;exitDy=0;entryX=1;entryY=0.5;entryDx=0;entryDy=0;" edge="1" parent="1" source="kukDhXoUH24sscGrnGUv-3" target="kukDhXoUH24sscGrnGUv-4">
          <mxGeometry relative="1" as="geometry" />
        </mxCell>
        <mxCell id="kukDhXoUH24sscGrnGUv-3" value="View&lt;br&gt;视图" style="rounded=1;whiteSpace=wrap;html=1;" vertex="1" parent="1">
          <mxGeometry x="534" y="430" width="120" height="60" as="geometry" />
        </mxCell>
        <mxCell id="kukDhXoUH24sscGrnGUv-11" style="edgeStyle=orthogonalEdgeStyle;rounded=0;orthogonalLoop=1;jettySize=auto;html=1;exitX=0.25;exitY=1;exitDx=0;exitDy=0;entryX=0.25;entryY=0;entryDx=0;entryDy=0;" edge="1" parent="1" source="kukDhXoUH24sscGrnGUv-4" target="kukDhXoUH24sscGrnGUv-5">
          <mxGeometry relative="1" as="geometry" />
        </mxCell>
        <mxCell id="kukDhXoUH24sscGrnGUv-4" value="Model&lt;br&gt;模型" style="rounded=1;whiteSpace=wrap;html=1;" vertex="1" parent="1">
          <mxGeometry x="354" y="580" width="120" height="60" as="geometry" />
        </mxCell>
        <mxCell id="kukDhXoUH24sscGrnGUv-12" style="edgeStyle=orthogonalEdgeStyle;rounded=0;orthogonalLoop=1;jettySize=auto;html=1;exitX=0.75;exitY=0;exitDx=0;exitDy=0;entryX=0.75;entryY=1;entryDx=0;entryDy=0;" edge="1" parent="1" source="kukDhXoUH24sscGrnGUv-5" target="kukDhXoUH24sscGrnGUv-4">
          <mxGeometry relative="1" as="geometry" />
        </mxCell>
        <mxCell id="kukDhXoUH24sscGrnGUv-5" value="数据库" style="aspect=fixed;perimeter=ellipsePerimeter;html=1;align=center;shadow=0;dashed=0;spacingTop=3;image;image=img/lib/active_directory/database.svg;imageBackground=none;" vertex="1" parent="1">
          <mxGeometry x="339.67" y="700" width="148.65" height="110" as="geometry" />
        </mxCell>
      </root>
    </mxGraphModel>
  </diagram>
</mxfile>
